.
 
http://www.scenetime.com    -  Hottest private tracker on the net. !!!

New release on http://www.scenetime.com

        Seed back for speed


...................................NFO:.................................................   The Holding (2011) DVDSCR XViD - NoGrp


General
Complete name                    : The Holding (2011) DVDSCR XViD - NoGrp.avi
Format                           : AVI
Format/Info                      : Audio Video Interleave
File size                        : 724 MiB
Duration                         : 1h 28mn
Overall bit rate                 : 1 139 Kbps
Writing application              : VirtualDubMod 1.5.10.3 | www.virtualdub-fr.org || (build 2550/release)
Writing library                  : VirtualDubMod build 2550/release

Video
ID                               : 0
Format                           : MPEG-4 Visual
Format profile                   : Simple@L1
Format settings, BVOP            : No
Format settings, QPel            : No
Format settings, GMC             : No warppoints
Format settings, Matrix          : Default (H.263)
Codec ID                         : XVID
Codec ID/Hint                    : XviD
Duration                         : 1h 28mn
Bit rate                         : 1 001 Kbps
Width                            : 586 pixels
Height                           : 246 pixels
Display aspect ratio             : 2.40:1
Frame rate                       : 25.000 fps
Color space                      : YUV
Chroma subsampling               : 4:2:0
Bit depth                        : 8 bits
Scan type                        : Progressive
Compression mode                 : Lossy
Bits/(Pixel*Frame)               : 0.278
Stream size                      : 636 MiB (88%)
Writing library                  : Lavc52.0.0

Audio
ID                               : 1
Format                           : MPEG Audio
Format version                   : Version 1
Format profile                   : Layer 3
Codec ID                         : 55
Codec ID/Hint                    : MP3
Duration                         : 1h 28mn
Bit rate mode                    : Constant
Bit rate                         : 128 Kbps
Channel(s)                       : 2 channels
Sampling rate                    : 44.1 KHz
Compression mode                 : Lossy
Stream size                      : 81.4 MiB (11%)
Alignment                        : Split accross interleaves
Interleave, duration             : 40 ms (1.00 video frame)
Interleave, preload duration     : 500 ms

Link: http://www.imdb.com/title/tt1582621/

Plot: A heart-pounding suspense thriller, set on an isolated farm in England's beautiful, rugged Peak District. 

eNJOY

[color=blue][b]Screenshots[/b][/color]

[imgw]http://bitpic.bitboxes.co.uk/images/1352.jpg[/imgw]

[imgw]http://bitpic.bitboxes.co.uk/images/1343.jpg[/imgw]

[imgw]http://bitpic.bitboxes.co.uk/images/8784.jpg[/imgw]

[imgw]http://bitpic.bitboxes.co.uk/images/8285.jpg[/imgw]

[imgw]http://bitpic.bitboxes.co.uk/images/755theholding2011dvdscrxv.jpg[/imgw]

[color=Darkblue][b]eNJOY[/b][/color]